<?xml version="1.0" encoding="UTF-8"?>
<svg xmlns="http://www.w3.org/2000/svg" xmlns:xlink="http://www.w3.org/1999/xlink" width="634.64pt" height="164.05pt" viewBox="0 0 634.64 164.05" version="1.1">
<defs>
<clipPath id="clip1">
  <path d="M 522 49 L 634.640625 49 L 634.640625 164.050781 L 522 164.050781 Z M 522 49 "/>
</clipPath>
<clipPath id="clip2">
  <path d="M 0 0 L 87 0 L 87 164.050781 L 0 164.050781 Z M 0 0 "/>
</clipPath>
<clipPath id="clip3">
  <path d="M 88 0 L 182 0 L 182 164.050781 L 88 164.050781 Z M 88 0 "/>
</clipPath>
</defs>
<g id="surface1">
<path style=" stroke:none;fill-rule:nonzero;fill:rgb(57.598877%,58.399963%,59.599304%);fill-opacity:1;" d="M 297.820313 123.324219 L 291.410156 135.007813 C 290.898438 136.105469 289.886719 138.050781 288.363281 140.847656 L 285.320313 146.6875 L 284.886719 146.6875 L 281.84375 140.847656 L 278.691406 135.007813 L 272.390625 123.238281 L 232.824219 50.585938 L 203.808594 50.585938 L 203.808594 162.898438 L 220.539063 162.898438 L 220.539063 66.875 L 220.4375 63.75 L 220.324219 60.703125 L 220.761719 60.703125 C 221.265625 61.800781 221.699219 62.652344 222.0625 63.253906 L 223.371094 65.890625 L 226.304688 71.074219 L 276.953125 162.898438 L 293.6875 162.898438 L 344.230469 70.003906 L 347.058594 64.734375 C 347.273438 64.351563 347.710938 63.5 348.359375 62.1875 L 349.660156 59.550781 L 350.101563 59.550781 L 349.988281 62.925781 L 349.882813 66.300781 L 349.882813 162.898438 L 366.621094 162.898438 L 366.621094 50.585938 L 337.160156 50.585938 L 297.820313 123.324219 "/>
<path style=" stroke:none;fill-rule:nonzero;fill:rgb(57.598877%,58.399963%,59.599304%);fill-opacity:1;" d="M 415.636719 129.578125 L 448.140625 60.949219 L 481.066406 129.578125 Z M 436.070313 50.585938 L 381.722656 162.898438 L 399.441406 162.898438 L 410.851563 139.121094 L 485.957031 139.121094 L 497.480469 162.898438 L 514.976563 162.898438 L 459.546875 50.585938 L 436.070313 50.585938 "/>
<g clip-path="url(#clip1)" clip-rule="nonzero">
<path style=" stroke:none;fill-rule:nonzero;fill:rgb(57.598877%,58.399963%,59.599304%);fill-opacity:1;" d="M 625.238281 106.453125 C 618.972656 102.777344 604.277344 100.5625 581.164063 99.789063 C 561.457031 99.078125 549.613281 97.734375 545.628906 95.757813 C 541.640625 93.78125 539.644531 88.269531 539.644531 79.21875 C 539.644531 71.15625 542.1875 65.957031 547.253906 63.625 C 552.332031 61.296875 563.632813 60.128906 581.164063 60.128906 C 595.945313 60.128906 605.332031 61.347656 609.316406 63.789063 C 613.300781 66.230469 615.292969 71.976563 615.292969 81.027344 L 631.921875 81.027344 C 631.921875 67.917969 628.554688 59.378906 621.816406 55.398438 C 615.078125 51.421875 600.613281 49.433594 578.449219 49.433594 C 556.570313 49.433594 541.96875 51.574219 534.644531 55.855469 C 527.328125 60.128906 523.675781 68.660156 523.675781 81.441406 C 523.675781 99.871094 536.242188 109.746094 561.386719 111.058594 L 577.90625 111.71875 L 595.292969 112.378906 C 604.859375 112.816406 611.144531 114.171875 614.152344 116.449219 C 617.160156 118.730469 618.664063 123.292969 618.664063 130.152344 C 618.664063 140.738281 616.449219 147.253906 612.035156 149.695313 C 607.609375 152.136719 595.804688 153.355469 576.609375 153.355469 C 559.863281 153.355469 549.464844 152.136719 545.410156 149.695313 C 541.347656 147.253906 539.320313 141.011719 539.320313 130.976563 L 539.320313 128.171875 L 522.6875 128.171875 L 522.800781 133.195313 C 522.800781 145.59375 526.328125 153.835938 533.398438 157.917969 C 540.464844 162.011719 554.691406 164.050781 576.058594 164.050781 C 600.691406 164.050781 616.617188 162.019531 623.824219 157.960938 C 631.035156 153.90625 634.640625 144.960938 634.640625 131.136719 C 634.640625 118.355469 631.507813 110.132813 625.238281 106.453125 "/>
</g>
<g clip-path="url(#clip2)" clip-rule="nonzero">
<path style=" stroke:none;fill-rule:nonzero;fill:rgb(92.89856%,10.998535%,14.099121%);fill-opacity:1;" d="M 81.316406 43.96875 L 41.675781 0.00390625 L 0 164.050781 L 86.398438 164.050781 L 62 64.339844 L 81.316406 43.96875 "/>
</g>
<g clip-path="url(#clip3)" clip-rule="nonzero">
<path style=" stroke:none;fill-rule:nonzero;fill:rgb(92.89856%,10.998535%,14.099121%);fill-opacity:1;" d="M 132.53125 0.195313 L 88.378906 49.328125 L 118.222656 164.050781 L 181.394531 164.050781 L 132.53125 0.195313 "/>
</g>
</g>
</svg>
